<?xml version="1.0" standalone="no"?>
<!DOCTYPE svg PUBLIC "-//W3C//DTD SVG 20010904//EN"
 "http://www.w3.org/TR/2001/REC-SVG-20010904/DTD/svg10.dtd">
<svg version="1.0" xmlns="http://www.w3.org/2000/svg"
 width="512.000000pt" height="512.000000pt" viewBox="0 0 512.000000 512.000000"
 preserveAspectRatio="xMidYMid meet">
<metadata>
Created by potrace 1.11, written by Peter Selinger 2001-2013
</metadata>
<g transform="translate(0.000000,512.000000) scale(0.100000,-0.100000)"
fill="#000000" stroke="none">
<path d="M1589 3948 c-24 -28 -55 -63 -69 -78 -14 -15 -50 -56 -80 -91 -30
-34 -124 -141 -209 -237 -89 -100 -150 -177 -144 -180 6 -4 581 -7 1277 -6
l1265 1 -19 -26 c-10 -14 -41 -49 -67 -77 -26 -28 -57 -62 -68 -75 -11 -13
-43 -49 -70 -79 -28 -31 -79 -89 -115 -129 -36 -40 -76 -86 -90 -101 -14 -15
-52 -58 -85 -96 -33 -38 -85 -96 -115 -129 -55 -61 -119 -133 -175 -196 -58
-67 -190 -215 -222 -249 l-33 -35 421 -3 421 -2 29 32 c17 17 53 58 82 91 29
33 59 67 68 76 8 9 69 77 135 151 65 74 231 260 368 415 137 154 279 314 316
355 37 41 129 145 205 230 76 85 156 176 179 201 23 25 68 76 101 113 33 38
79 89 102 115 24 25 43 49 43 54 0 4 -767 7 -1704 7 l-1704 0 -43 -52z"/>
<path d="M1705 2927 c-18 -21 -146 -165 -211 -237 -17 -19 -91 -102 -164 -185
-73 -82 -163 -184 -201 -225 -37 -41 -77 -86 -89 -100 -27 -31 -130 -147 -191
-214 -47 -53 -185 -207 -300 -337 -112 -126 -252 -283 -263 -295 -12 -12 -114
-128 -165 -186 l-33 -38 58 0 c33 -1 801 -1 1708 -1 l1649 -1 31 34 c17 18 81
89 141 158 102 116 139 158 190 215 113 125 195 221 195 226 0 2 -574 4 -1275
4 -701 0 -1275 2 -1275 5 0 3 10 16 23 30 12 14 74 83 137 155 107 121 156
175 205 229 11 12 54 60 95 106 41 47 79 90 85 96 5 6 39 44 75 84 36 40 70
78 75 84 6 6 44 49 85 96 41 47 77 87 80 90 8 8 163 183 183 207 l19 21 -425
0 c-423 0 -424 0 -442 -21z"/>
</g>
</svg>
